<?xml version="1.0" standalone="no"?>
<!DOCTYPE svg PUBLIC "-//W3C//DTD SVG 20010904//EN"
 "http://www.w3.org/TR/2001/REC-SVG-20010904/DTD/svg10.dtd">
<svg version="1.0" xmlns="http://www.w3.org/2000/svg"
 width="512.000000pt" height="512.000000pt" viewBox="0 0 512.000000 512.000000"
 preserveAspectRatio="xMidYMid meet">
<metadata>
Created by potrace 1.14, written by Peter Selinger 2001-2017
</metadata>
<g transform="translate(0.000000,512.000000) scale(0.100000,-0.100000)"
fill="#000000" stroke="none">
<path d="M0 2560 l0 -2560 2560 0 2560 0 0 2560 0 2560 -2560 0 -2560 0 0
-2560z m4010 1238 c6 -13 178 -489 383 -1058 l373 -1035 102 -3 102 -3 0 -34
0 -35 -495 0 -495 0 0 35 0 35 125 0 c93 0 125 3 125 13 0 6 -45 131 -99 277
l-99 265 -340 3 -340 2 -26 -70 c-69 -188 -89 -343 -50 -397 32 -44 113 -80
199 -88 l75 -7 0 -34 0 -34 -360 0 -360 0 0 35 c0 32 3 35 38 40 110 19 180
60 226 135 37 58 70 147 404 1065 176 484 323 888 327 898 6 14 20 17 91 17
78 0 85 -2 94 -22z m-1880 -65 c0 -21 5 -130 10 -243 5 -113 10 -250 11 -305
l2 -100 -43 0 -43 0 -23 92 c-30 122 -107 271 -176 342 -73 74 -165 126 -268
151 -69 17 -128 23 -307 27 l-223 6 0 -433 0 -432 148 4 c164 4 216 19 281 81
67 64 121 183 121 267 l0 40 45 0 45 0 0 -431 0 -430 -42 3 -42 3 -12 86 c-16
110 -32 147 -89 208 -74 79 -121 95 -302 99 l-153 4 0 -536 0 -536 135 0 135
0 0 -35 0 -35 -525 0 -525 0 0 35 0 34 138 3 137 3 0 995 0 995 -137 3 -138 3
0 34 0 35 920 0 920 0 0 -37z"/>
<path d="M3667 3145 c-15 -39 -87 -236 -161 -440 l-134 -370 165 -3 c90 -1
235 -1 322 0 l158 3 -157 425 c-86 234 -159 432 -162 440 -2 8 -16 -17 -31
-55z"/>
</g>
</svg>
