<?xml version="1.0" encoding="utf-8"?>
<!-- Generator: Adobe Illustrator 27.2.0, SVG Export Plug-In . SVG Version: 6.00 Build 0)  -->
<svg version="1.1" id="Capa_1" xmlns="http://www.w3.org/2000/svg" xmlns:xlink="http://www.w3.org/1999/xlink" x="0px" y="0px"
	 viewBox="0 0 595.28 841.89" style="enable-background:new 0 0 595.28 841.89;" xml:space="preserve">
<style type="text/css">
	.st0{fill:#FFFFFF;stroke:#FFFFFF;stroke-miterlimit:10;}
</style>
<g>
	<path class="st0" d="M234.26,541.21c0,8.89,6.08,15.08,6.08,22.69c0,4.47-2.32,7.38-11.66,9.34v6.21
		c9.34,1.96,11.66,4.87,11.66,9.34c0,7.61-6.08,13.8-6.08,22.69c0,10.08,8.52,14.7,20.37,14.7h3.72v-6.09l-3-0.34
		c-4.98-0.58-7.69-3.48-7.69-8.72c0-6.39,3.14-13.32,3.14-19.44c0-7.08-3.54-12.7-10.83-15.23c7.3-2.53,10.83-8.15,10.83-15.23
		c0-6.12-3.14-13.05-3.14-19.44c0-5.25,2.71-8.14,7.69-8.72l3-0.34v-6.09h-3.72C242.78,526.51,234.26,531.13,234.26,541.21z"/>
	<path class="st0" d="M282.41,562.41h12.92l1.47,8.79h6.18l-0.52-13.09h-19.96h-6.44h-6.44h-5.48v4.08l5.58,0.59
		c0.11,6.29,0.12,12.61,0.12,18.88v2.81c0,6.37-0.01,12.69-0.12,18.88l-5.59,0.59v4.08h5.48h12.89h6.55v-4.08l-6.66-0.71
		c-0.11-6.16-0.12-12.38-0.12-18.74h8.2l0.97,6.66h4.3v-17.12h-4.3l-0.91,5.98h-8.25C282.29,574.08,282.3,568.19,282.41,562.41z"/>
	<path class="st0" d="M326.72,558.01h-7.66l-15.1,45.06l-5.97,0.89v4.08h4.3h4.39h7.28v-4.08l-5.69-0.92l3.01-9.5h14.94l3.04,9.81
		l-5.72,0.78v3.92h7.17h12.67h3v-3.92l-4.49-0.54L326.72,558.01z M312.69,589.11l6.15-19.39l6.01,19.39H312.69z"/>
	<path class="st0" d="M380.38,579.44v-6.21c-9.34-1.96-11.66-4.87-11.66-9.34c0-7.61,6.08-13.8,6.08-22.69
		c0-10.08-8.52-14.7-20.37-14.7h-3.72v6.09l3,0.34c4.98,0.58,7.69,3.48,7.69,8.72c0,6.39-3.14,13.32-3.14,19.44
		c0,7.08,3.54,12.7,10.83,15.23c-7.3,2.53-10.83,8.15-10.83,15.23c0,6.12,3.14,13.05,3.14,19.44c0,5.25-2.71,8.14-7.69,8.72l-3,0.34
		v6.09h3.72c11.85,0,20.37-4.62,20.37-14.7c0-8.89-6.08-15.08-6.08-22.69C368.72,584.31,371.04,581.4,380.38,579.44z"/>
</g>
</svg>
